<?xml version="1.0" encoding="UTF-8"?>
<svg version="1.1" xmlns="http://www.w3.org/2000/svg" width="1024" height="1024">
<path d="M0 0 C337.92 0 675.84 0 1024 0 C1024 337.92 1024 675.84 1024 1024 C686.08 1024 348.16 1024 0 1024 C0 686.08 0 348.16 0 0 Z " fill="#FEFEFE" transform="translate(0,0)"/>
<path d="M0 0 C3.77453301 0.78636104 5.45937489 1.71075355 8 4.625 C8.82118267 9.75739171 7.37140078 13.78084832 5.80078125 18.58203125 C4.16554318 24.79593592 3.67263494 31.24683807 3 37.625 C8.35877038 34.29134634 12.20357918 30.36718462 16.4375 25.671875 C19 23.625 19 23.625 22.1328125 23.234375 C25.96979821 23.7571251 27.48850431 24.67029919 30 27.625 C30.69745866 31.49272529 30.92101892 33.85904634 29.1015625 37.34765625 C23.09607335 45.04560143 13.64722011 51.42207689 5 55.625 C5.00222061 56.17464417 5.00444122 56.72428833 5.00672913 57.29058838 C5.02903686 63.06676578 5.0440117 68.84293072 5.05493164 74.61914062 C5.05992728 76.76823423 5.06672607 78.9173245 5.07543945 81.06640625 C5.16597155 103.98700293 5.16597155 103.98700293 4 113.625 C12.99476512 109.37593918 21.49633824 105.29492156 29 98.625 C26.94597683 94.4177255 24.63241325 90.3619116 22.33984375 86.28125 C19.90034847 81.44493283 19.76039655 76.99018618 19.6875 71.625 C19.65849609 70.9134375 19.62949219 70.201875 19.59960938 69.46875 C19.55731779 65.9813211 19.71898426 64.00881155 21.8046875 61.16015625 C25.05629808 58.88634316 27.1272769 59.01351741 31 59.625 C33.875 61.25 33.875 61.25 36 64.625 C36.45916554 68.18778443 36.62535998 71.65840599 36.6640625 75.25 C37.02529128 78.87908912 37.98916567 80.64598618 40 83.625 C40 84.285 40 84.945 40 85.625 C43.86811162 82.25013752 45.85265837 78.53512669 48.0625 74 C48.41610596 73.2894043 48.76971191 72.57880859 49.1340332 71.84667969 C51.04487828 67.91523751 52.58479939 64.12103108 53.6875 59.875 C54.54182581 56.68874085 55.04647982 55.56948244 57.25 52.9375 C60.95859897 51.16748685 63.08326615 51.53701838 67 52.625 C69.54722166 54.23824038 69.91494204 55.32796513 70.74609375 58.23046875 C71.07822871 62.67085763 69.85583159 65.69026759 68.1875 69.75 C67.91357422 70.45253906 67.63964844 71.15507812 67.35742188 71.87890625 C66.04699474 75.203683 64.67690584 78.467509 63 81.625 C63.96421875 81.65078125 64.9284375 81.6765625 65.921875 81.703125 C67.18515625 81.75984375 68.4484375 81.8165625 69.75 81.875 C71.00296875 81.92140625 72.2559375 81.9678125 73.546875 82.015625 C77.45037815 82.7044785 78.6923441 83.45695881 81 86.625 C81.5625 90.125 81.5625 90.125 81 93.625 C77.92322046 96.96550351 75.42585949 98.07624114 71 98.625 C69.56755913 98.55338661 68.13637347 98.45424273 66.70703125 98.3359375 C57.38109144 97.40821743 57.38109144 97.40821743 48.98828125 100.71875 C47.38249831 102.60853092 45.84034935 104.553867 44.359375 106.54296875 C36.55937004 116.73204808 24.4291847 122.45379203 13 127.625 C12.38737305 127.91777832 11.77474609 128.21055664 11.14355469 128.51220703 C7.61579005 130.14267848 4.89213634 130.97883058 1 130.625 C0.91363281 131.305625 0.82726562 131.98625 0.73828125 132.6875 C-1.18764641 145.97463394 -5.55376989 158.38836383 -11 170.625 C-1.84855223 169.68024345 6.19141759 167.82002354 14.8203125 164.74609375 C17.22534203 163.89812879 19.5292539 163.21472403 22 162.625 C21.98952637 162.06103516 21.97905273 161.49707031 21.96826172 160.91601562 C21.92625522 158.31905719 21.90053398 155.72217061 21.875 153.125 C21.85824219 152.238125 21.84148437 151.35125 21.82421875 150.4375 C21.77651308 143.94952882 21.94430752 137.67047034 25.6875 132.125 C28.98926813 129.98331256 31.14555357 130.0743648 35 130.625 C37.4375 132.0625 37.4375 132.0625 39 134.625 C39.72273694 139.97325335 38.89905422 145.34305646 38 150.625 C45.27168912 145.96510619 50.2104392 139.96955852 55.2175293 133.04882812 C57.9621431 129.42970711 59.22405069 127.84774885 63.71484375 126.55859375 C67 126.625 67 126.625 69.9375 128.0625 C72.21086289 130.88698117 72.85204763 132.78178555 72.609375 136.421875 C71.35247762 140.96604244 68.09486988 144.18882671 65 147.625 C63.88818359 148.89730469 63.88818359 148.89730469 62.75390625 150.1953125 C60.85409744 152.35587938 58.93651041 154.4973535 57 156.625 C64.84791865 153.83972616 71.61364173 150.27047626 78.03515625 144.93359375 C80 143.625 80 143.625 83.5625 143.75 C87 144.625 87 144.625 88.9375 145.6875 C90.71145378 148.9223569 90.7023749 152.09921707 90 155.625 C83.04415776 165.45912178 67.49920808 172.09517422 56 174.625 C53.0625 174.75 53.0625 174.75 51 174.625 C55.42271663 182.70126515 62.90407209 186.46202854 71.25 189.765625 C73 190.625 73 190.625 74 192.625 C74.53507099 196.6380324 74.33051628 198.16428033 71.9375 201.5 C69 203.625 69 203.625 65.9375 204.3125 C54.62026879 202.3364755 45.02569645 195.10415652 38.08203125 186.15234375 C35.92988535 183.00847266 34.20813937 180.24941812 33 176.625 C28.97330153 177.20939163 25.50383922 178.56176457 21.77148438 180.10107422 C12.3801125 183.96961213 3.7505417 186.75525056 -6.5234375 186.56640625 C-13.34489458 186.39251813 -13.34489458 186.39251813 -20 187.625 C-23.25093248 190.90660165 -24.73618234 194.21616484 -26 198.625 C-25.35289062 198.8415625 -24.70578125 199.058125 -24.0390625 199.28125 C-19.85613812 201.13076926 -16.19749635 203.62858051 -12.375 206.125 C18.8143048 226.06836352 55.04907956 241.44781545 92.8125 234.5 C100.06104024 232.80786042 107.08577271 230.39603469 114.1015625 227.9296875 C117.043415 226.90869992 119.91759856 226.1245196 123 225.625 C114.09832051 246.13756578 95.05291827 259.87095365 74.82421875 267.8828125 C53.5173424 275.34436453 29.5825525 274.6674372 8 268.625 C7.16194824 268.39377441 6.32389648 268.16254883 5.46044922 267.92431641 C-13.51719038 262.50364909 -31.55896488 254.23949845 -49.60797119 246.35238647 C-55.9065037 243.61440859 -62.22056117 240.91417092 -68.91796875 239.30859375 C-69.78099609 239.10169922 -70.64402344 238.89480469 -71.53320312 238.68164062 C-72.84708008 238.37516602 -72.84708008 238.37516602 -74.1875 238.0625 C-75.04408203 237.85431641 -75.90066406 237.64613281 -76.78320312 237.43164062 C-89.04301049 234.53254607 -100.96093571 233.21115783 -113.5625 233.25 C-114.26243073 233.25087616 -114.96236145 233.25175232 -115.6835022 233.25265503 C-127.51792794 233.30129542 -138.59445183 234.35335711 -150 237.625 C-151.12438477 237.93123291 -151.12438477 237.93123291 -152.27148438 238.24365234 C-166.93547087 242.33181285 -180.79643998 248.69062441 -194.67944336 254.85058594 C-222.27432988 267.06761842 -250.92598347 274.89881887 -280.40234375 263.71337891 C-299.73274277 255.84608973 -314.14217782 243.78099805 -326 226.625 C-325.505 225.635 -325.505 225.635 -325 224.625 C-323.9275 225.346875 -322.855 226.06875 -321.75 226.8125 C-307.39785662 235.73821461 -290.96694404 239.04769867 -274.3203125 235.9375 C-249.73627595 229.24796624 -228.84187375 216.2227147 -208.1640625 201.8046875 C-174.77484358 178.80322558 -136.13799719 159.51120336 -94.37915039 166.55151367 C-91.2317122 167.15768979 -88.116984 167.87940914 -85 168.625 C-83.97003906 168.8415625 -82.94007813 169.058125 -81.87890625 169.28125 C-69.77622706 171.98144934 -58.6353018 176.93609245 -47.92260742 183.0847168 C-44.56363191 184.97612948 -42.968749 185.625 -39 185.625 C-37.30230704 183.62556269 -36.01489607 181.85246509 -34.6875 179.625 C-34.33083252 179.02848633 -33.97416504 178.43197266 -33.60668945 177.81738281 C-31.8375987 174.67062702 -30.39026618 172.03097592 -30.6875 168.375 C-34.51405381 157.44198912 -40.79610729 150.18977749 -50 143.4375 C-55.60550152 139.24293593 -61.10845939 134.97957408 -66.4375 130.4375 C-66.97439453 129.98028564 -67.51128906 129.52307129 -68.06445312 129.05200195 C-70.10867043 127.2973821 -72.09436482 125.53063518 -74 123.625 C-77.56393297 123.91712565 -80.92114809 124.39069505 -84.41015625 125.1484375 C-95.62790956 127.21263947 -105.50957706 124.79949203 -115 118.625 C-116.96138387 116.03953944 -117.01298264 114.83704975 -116.8125 111.5625 C-115.58544563 107.12622649 -115.58544563 107.12622649 -113 105.625 C-108.38960093 105.16396009 -105.92286593 105.20709845 -101.6875 107.125 C-96.72288759 109.14450335 -92.28882412 108.88322469 -87 108.625 C-87.50789062 107.8 -88.01578125 106.975 -88.5390625 106.125 C-94.96181762 95.43814911 -103.80796033 80.46151837 -102 67.625 C-100.4375 65.125 -100.4375 65.125 -98 63.625 C-94.5 63.125 -94.5 63.125 -91 63.625 C-86.90342272 66.72088665 -85.67710401 70.62696213 -84.25 75.375 C-84.02957031 76.07238281 -83.80914063 76.76976562 -83.58203125 77.48828125 C-83.04364258 79.19708008 -82.52028943 80.91060368 -82 82.625 C-81.34 82.625 -80.68 82.625 -80 82.625 C-79.06232656 81.51314573 -78.17343213 80.35978293 -77.3125 79.1875 C-74.93749266 76.33749119 -74.11463188 75.66321063 -70.4375 74.4375 C-67 74.625 -67 74.625 -64.0625 76.0625 C-61.75896591 78.92446659 -61.21870256 80.86053049 -61.4375 84.5390625 C-62.47969584 88.40387206 -65.28581792 90.8143749 -68 93.625 C-70.4274845 96.75164114 -70.4274845 96.75164114 -70.8203125 100.46875 C-67.89601772 108.15546771 -59.21978382 114.50681277 -53 119.625 C-51.07721206 112.70296343 -50.66342041 106.07371252 -50.60571289 98.92236328 C-50.49717313 95.20020506 -50.41811387 93.21108975 -48.2109375 90.1171875 C-45.89577971 88.55466051 -44.76159761 88.05710625 -42 88.0625 C-41.01 88.02962891 -41.01 88.02962891 -40 87.99609375 C-36.67485945 89.04169459 -35.73225031 90.63051915 -34 93.625 C-33.39032976 96.94879552 -33.38522133 100.19052593 -33.4375 103.5625 C-33.44120605 104.49312256 -33.44491211 105.42374512 -33.44873047 106.38256836 C-33.63056749 113.64664375 -35.06316222 119.27872706 -38.1015625 125.91015625 C-39.24934931 128.5236556 -39.24934931 128.5236556 -38.37890625 130.79296875 C-36.85528166 132.81727451 -35.28190217 134.2809063 -33.3125 135.875 C-29.13236816 139.41321032 -25.25396487 143.2016415 -22 147.625 C-22 148.285 -22 148.945 -22 149.625 C-21.34 149.625 -20.68 149.625 -20 149.625 C-19.62875 147.7378125 -19.62875 147.7378125 -19.25 145.8125 C-18.57155961 142.37699334 -17.85439121 138.95445243 -17.08203125 135.5390625 C-14.28054848 122.9841684 -12.49552771 110.39728908 -11 97.625 C-11.70511719 97.36976563 -12.41023438 97.11453125 -13.13671875 96.8515625 C-34.89667008 87.53010995 -49.77324376 66.51982497 -58.3125 45.375 C-59.1722253 41.93609881 -59.39220764 39.15486872 -59 35.625 C-57.4375 33.1875 -57.4375 33.1875 -55 31.625 C-51.5 31.125 -51.5 31.125 -48 31.625 C-44.38493632 34.52257013 -42.91935635 37.60886712 -41.25 41.875 C-40.60804688 43.49148438 -40.60804688 43.49148438 -39.953125 45.140625 C-39.63859375 45.96046875 -39.3240625 46.7803125 -39 47.625 C-38.38125 46.820625 -37.7625 46.01625 -37.125 45.1875 C-35 42.625 -35 42.625 -33 41.625 C-29.16385043 41.26980097 -26.85370366 41.07775406 -23.5625 43.1875 C-21.30695363 46.70615233 -21.32195955 48.48895323 -22 52.625 C-23.45831565 55.05689539 -25.03682639 57.27972393 -26.78515625 59.51171875 C-28.19565505 61.5169231 -28.19565505 61.5169231 -27.875 63.6796875 C-24.93122786 70.22432378 -17.98024293 74.18640472 -12 77.625 C-12.06783691 76.6570752 -12.13567383 75.68915039 -12.20556641 74.69189453 C-14.95143555 34.18601326 -14.95143555 34.18601326 -10.8125 15.9375 C-10.61640137 15.06657715 -10.42030273 14.1956543 -10.21826172 13.29833984 C-8.69659332 7.47442555 -6.4710156 1.34812825 0 0 Z " fill="#20A2BC" transform="translate(606,333.375)"/>
<path d="M0 0 C0.69480469 0.19883789 1.38960937 0.39767578 2.10546875 0.60253906 C16.64574287 4.83352047 30.3650911 11.48491814 44.09692383 17.78198242 C56.95922893 23.66477731 69.92213548 29.31595717 83.6875 32.75 C84.48728271 32.95262451 85.28706543 33.15524902 86.11108398 33.36401367 C104.53512686 37.9232464 121.55346284 38.169686 140 34 C141.155 33.77183594 142.31 33.54367187 143.5 33.30859375 C149.94974619 31.97757302 155.64413141 30.07962472 161.5625 27.18359375 C165.88366436 25.08533606 169.14429908 23.72253138 174 24 C173.61058764 29.41120922 171.5278823 32.41011153 168 36.3125 C167.47237061 36.90788574 166.94474121 37.50327148 166.40112305 38.11669922 C164.62165055 40.09808862 162.81589612 42.05195351 161 44 C160.03054443 45.04534912 160.03054443 45.04534912 159.04150391 46.11181641 C149.26472134 56.54494902 139.12004136 65.40355821 127 73 C125.95537598 73.66636475 125.95537598 73.66636475 124.88964844 74.34619141 C105.43718215 86.56794168 83.47686231 93.38363657 60.54321289 93.31567383 C58.33363678 93.31253007 56.12542569 93.33598916 53.91601562 93.36132812 C44.22822747 93.40492388 35.45210525 92.27827026 26 90 C24.60285767 89.67793579 24.60285767 89.67793579 23.17749023 89.34936523 C20.79612265 88.78606822 18.42940642 88.1834287 16.0625 87.5625 C15.29099609 87.37107422 14.51949219 87.17964844 13.72460938 86.98242188 C5.95201059 84.95564295 -0.50596924 81.35445788 -7.375 77.25 C-32.26613239 62.81239214 -57.80455586 57.0328538 -86.45703125 56.75390625 C-88.81055064 56.72097073 -91.16406617 56.68775904 -93.51757812 56.65429688 C-97.16379216 56.6070325 -100.80999026 56.56252707 -104.45629883 56.52319336 C-117.45687422 56.37660663 -130.16037088 56.20599929 -143 54 C-144.91901084 53.72345022 -146.83827037 53.44861889 -148.7578125 53.17578125 C-169.66722992 49.91513535 -187.61846843 43.44070993 -206 33 C-203.17247175 31.58623587 -201.88936272 32.53319118 -198.875 33.4375 C-168.30506447 40.65025215 -139.60235045 28.21415436 -112.625 15 C-78.29197657 -1.77510999 -37.6497445 -11.5698152 0 0 Z " fill="#1D346A" transform="translate(533,582)"/>
<path d="M0 0 C1.60115482 0.08218295 3.20239443 0.16272919 4.80371094 0.24169922 C18.07025972 0.98431623 30.89628269 2.98385219 43.75 6.375 C44.75949707 6.63587402 45.76899414 6.89674805 46.80908203 7.16552734 C60.89434143 10.86703859 74.38714377 15.60588472 87.75 21.375 C88.59046875 21.73352051 89.4309375 22.09204102 90.296875 22.46142578 C101.86989515 27.42160468 112.90972936 32.9707619 123.75 39.375 C123.75 39.705 123.75 40.035 123.75 40.375 C116.37811715 40.02808787 109.60713887 38.37622903 102.55859375 36.3125 C82.48040924 31.37017766 57.5160556 32.70517385 37.75 38.375 C37.00041016 38.57915527 36.25082031 38.78331055 35.47851562 38.99365234 C20.81452913 43.08181285 6.95356002 49.44062441 -6.92944336 55.60058594 C-34.52432988 67.81761842 -63.17598347 75.64881887 -92.65234375 64.46337891 C-111.98274277 56.59608973 -126.39217782 44.53099805 -138.25 27.375 C-137.92 26.715 -137.59 26.055 -137.25 25.375 C-135.64125 26.4578125 -135.64125 26.4578125 -134 27.5625 C-119.64785662 36.48821461 -103.21694404 39.79769867 -86.5703125 36.6875 C-67.96585888 31.62506364 -50.76624874 23.00127817 -34.74609375 12.4140625 C-34.04564941 11.9588623 -33.34520508 11.50366211 -32.62353516 11.03466797 C-30.12072037 9.33401765 -30.12072037 9.33401765 -27.43505859 7.03173828 C-18.30082613 -0.20990512 -11.41010626 -0.80890073 0 0 Z " fill="#87C8E9" transform="translate(418.25,532.625)"/>
<path d="M0 0 C4.7534169 1.88210798 9.45515914 3.87943081 14.16015625 5.87890625 C16.84839315 7.03067807 16.84839315 7.03067807 19.18359375 7.46484375 C21 8 21 8 22.34326172 9.3894043 C42.54639782 29.02985358 84.91657814 31.9890764 111.2890625 32.24609375 C113.63672233 32.27904296 115.98437849 32.31225442 118.33203125 32.34570312 C121.97149078 32.39287678 125.61093662 32.43734753 129.25048828 32.47680664 C142.98017115 32.63242338 156.40101286 33.03408671 170 35 C171.89574514 35.20913438 173.79156057 35.41763443 175.6875 35.625 C192.02067336 38.54801327 216.52471507 46.5464645 228 59 C223.89181143 58.55183397 219.97842582 58.02514419 215.98046875 56.98046875 C210.24770913 55.68778188 204.60592142 55.65695891 198.75 55.6875 C197.08348389 55.69487183 197.08348389 55.69487183 195.38330078 55.70239258 C183.37443684 55.8741491 173.63910291 58.77054275 162.3125 62.6640625 C157.13902221 64.33827113 151.86212621 65.54760457 146.5625 66.75 C145.63896729 66.96060059 144.71543457 67.17120117 143.76391602 67.38818359 C123.37892345 71.89358244 100.00657466 72.49904551 80 66 C79.32372559 65.78569336 78.64745117 65.57138672 77.95068359 65.35058594 C56.92720839 58.51683743 37.79927648 46.41470991 22 31 C20.7315625 29.7625 20.7315625 29.7625 19.4375 28.5 C18.633125 27.675 17.82875 26.85 17 26 C16.34644531 25.36835937 15.69289063 24.73671875 15.01953125 24.0859375 C-0.68952927 8.78244653 -0.68952927 8.78244653 -1.30859375 3.234375 C-1 1 -1 1 0 0 Z " fill="#88C7E9" transform="translate(306,605)"/>
<path d="M0 0 C5.53497587 2.92366671 10.39739535 8.55069364 12.73046875 14.3515625 C13.71855199 21.53856796 13.10784246 27.38245625 9.14453125 33.515625 C4.9197167 39.00088146 -0.73961022 41.69424878 -7.50390625 42.67578125 C-13.22084399 42.96162814 -17.61296805 41.69448471 -22.26953125 38.3515625 C-27.17922696 33.85554403 -29.8668061 29.49837304 -30.51953125 22.77734375 C-30.78825737 16.62183614 -30.37508937 12.09223458 -26.26953125 7.3515625 C-18.48401739 -0.31086023 -11.15506349 -3.187161 0 0 Z " fill="#EBE2D1" transform="translate(561.26953125,530.6484375)"/>
<path d="M0 0 C3.68067472 1.15873093 5.16802599 1.92180622 7.375 5.0625 C8.54239517 8.7203382 8.72884129 10.32111824 7.0625 13.8125 C5.375 16.0625 5.375 16.0625 3.375 18.0625 C-1.09683139 18.50235227 -3.57013415 18.56795655 -7.625 16.625 C-10.15055662 13.38913059 -10.41220503 11.30059835 -10.171875 7.26171875 C-9.55738386 4.79058653 -8.88955415 3.69088261 -7.0625 1.9375 C-3.625 0.0625 -3.625 0.0625 0 0 Z " fill="#FDFDFC" transform="translate(547.625,534.9375)"/>
<path d="M0 0 C2.61497941 0.44828218 4.92344056 0.96776444 7.375 2 C10.55617053 3.21187449 13.62924226 3.60344027 17 4 C16.01 4.495 16.01 4.495 15 5 C15 5.99 15 6.98 15 8 C13.39253944 7.57476184 11.78910164 7.13429874 10.1875 6.6875 C9.29417969 6.44386719 8.40085937 6.20023438 7.48046875 5.94921875 C4.90283771 4.96281821 3.77000911 4.0676683 2 2 C1.34 1.34 0.68 0.68 0 0 Z " fill="#3BAFCC" transform="translate(537,569)"/>
<path d="M0 0 C0 0.66 0 1.32 0 2 C-1.98 2 -3.96 2 -6 2 C-6.226875 2.5775 -6.45375 3.155 -6.6875 3.75 C-8.33038023 6.5663661 -10.39533227 8.08077114 -13 10 C-11.22752395 3.79633382 -6.79010578 -0.99854497 0 0 Z " fill="#36ADC4" transform="translate(539,408)"/>
<path d="M0 0 C3.99500618 1.3697164 6.80009492 3.25722422 10 6 C2.375 5.125 2.375 5.125 -1 4 C-0.67 2.68 -0.34 1.36 0 0 Z " fill="#96CFEA" transform="translate(524,658)"/>
<path d="M0 0 C-0.28875 0.53625 -0.5775 1.0725 -0.875 1.625 C-2.16711808 4.35280484 -3.08558592 7.12612718 -4 10 C-4.66 9.67 -5.32 9.34 -6 9 C-5.38983051 3.50847458 -5.38983051 3.50847458 -3.5625 1.125 C-2 0 -2 0 0 0 Z " fill="#33ADC1" transform="translate(495,439)"/>
<path d="M0 0 C0.94875 0.04125 1.8975 0.0825 2.875 0.125 C2.2975 0.3725 1.72 0.62 1.125 0.875 C-1.25949889 2.06490475 -1.25949889 2.06490475 -3.25 4.25 C-3.86875 4.86875 -4.4875 5.4875 -5.125 6.125 C-5.785 6.125 -6.445 6.125 -7.125 6.125 C-4.34782609 0.17391304 -4.34782609 0.17391304 0 0 Z " fill="#2FA8BE" transform="translate(606.125,333.875)"/>
<path d="M0 0 C-1.04874998 2.62187494 -1.64931313 3.79371361 -4.125 5.25 C-4.74375 5.4975 -5.3625 5.745 -6 6 C-3.84615385 0 -3.84615385 0 0 0 Z " fill="#30A7BC" transform="translate(553,365)"/>
</svg>
